<svg t="1743349951044" class="icon" viewBox="0 0 1024 1024" version="1.1" xmlns="http://www.w3.org/2000/svg" p-id="3736" width="200" height="200"><path d="M166.4 122.9312l216.2688 216.2688-43.4688 43.4688L122.9312 166.4l43.4688-43.4688zM382.6688 684.8L166.4 901.0688l-43.4688-43.4688 216.2688-216.2176 43.4688 43.4176zM684.8 641.3824l216.2688 216.2176-43.4688 43.4688-216.2176-216.2688 43.4176-43.4176zM901.0688 166.4l-216.2688 216.2688-43.4176-43.4688 216.2176-216.2688 43.4688 43.4688z" fill="#8a8a8a" p-id="3737"></path><path d="M696.32 154.88V327.68h172.8v61.44H634.88V154.88h61.44zM389.12 154.88V389.12H154.88V327.68H327.68V154.88h61.44zM154.88 634.88H389.12v234.24H327.68V696.32H154.88v-61.44zM634.88 634.88h232.2944v61.44H696.32v172.8h-61.44V634.88z" fill="#8a8a8a" p-id="3738"></path></svg>